<?xml version="1.0" encoding="UTF-8"?>
<svg width="693px" height="114px" viewBox="0 0 693 114" version="1.1" xmlns="http://www.w3.org/2000/svg" xmlns:xlink="http://www.w3.org/1999/xlink">
    <!-- Generator: Sketch 52.5 (67469) - http://www.bohemiancoding.com/sketch -->
    <title>Group 4</title>
    <desc>Created with Sketch.</desc>
    <g id="Main" stroke="none" stroke-width="1" fill="none" fill-rule="evenodd">
        <g id="Primary" transform="translate(-153.000000, -443.000000)">
            <g id="Group-3" transform="translate(153.000000, 444.000000)">
                <g id="Group" transform="translate(0.560887, 0.500000)">
                    <g id="Group-4">
                        <path d="M380.506245,57.0157189 L380.506245,53.1173077 L391.870901,53.1173077 L391.870901,53.1130461 L399.514245,53.1130461 C403.14093,53.1130461 405.935569,52.4197197 407.898245,51.0330461 C409.860922,49.6463725 410.842245,47.6303926 410.842245,44.9850461 C410.842245,42.3396995 409.860922,40.3237197 407.898245,38.9370461 C405.935569,37.5503725 403.14093,36.8570461 399.514245,36.8570461 L385.242245,36.8570461 L380.506245,36.8573077 L380.506245,32.9530461 L399.834245,32.9530461 C404.82627,32.9530461 408.698232,33.9557027 411.450245,35.9610461 C414.202259,37.9663894 415.578245,40.8036944 415.578245,44.4730461 C415.578245,46.9477251 414.970251,49.0490374 413.754245,50.7770461 C412.538239,52.5050547 410.863589,53.7957085 408.730245,54.6490461 C411.67426,55.2890493 413.946237,56.5583699 415.546245,58.4570461 C417.146253,60.3557222 417.946245,62.7983645 417.946245,65.7850461 C417.946245,69.6250653 416.527593,72.5797024 413.690245,74.6490461 C410.852898,76.7183897 406.66094,77.7530461 401.114245,77.7530461 L380.506245,77.7530461 L380.506245,73.8530171 L391.09655,73.8530171 L391.09655,73.8490461 L401.050245,73.8490461 C405.060932,73.8490461 408.090235,73.1663862 410.138245,71.8010461 C412.186256,70.4357059 413.210245,68.3023939 413.210245,65.4010461 C413.210245,59.8116848 409.156953,57.0170461 401.050245,57.0170461 L391.09655,57.0170461 L380.506245,57.0157189 Z M602.202245,59.5195832 L612.519604,59.5195832 L612.519604,59.5130461 L618.842245,59.5130461 C623.279601,59.5130461 626.671567,58.5317225 629.018245,56.5690461 C631.364924,54.6063696 632.538245,51.8543971 632.538245,48.3130461 C632.538245,44.6863613 631.364924,41.9023891 629.018245,39.9610461 C626.671567,38.019703 623.279601,37.0490461 618.842245,37.0490461 L606.938245,37.0490461 L606.938245,37.0520348 L602.202245,37.0520348 L602.202245,32.9530461 L618.970245,32.9530461 C624.687607,32.9530461 629.167562,34.3183657 632.410245,37.0490461 C635.652928,39.7797264 637.274245,43.5343555 637.274245,48.3130461 C637.274245,51.8117302 636.388921,54.7663673 634.618245,57.1770461 C632.84757,59.5877248 630.319595,61.3263741 627.034245,62.3930461 L637.978245,77.7530461 L632.794245,77.7530461 L622.554245,63.3530461 C621.40224,63.4810467 620.207585,63.5450461 618.970245,63.5450461 L606.938245,63.5450461 L606.938245,77.7530461 L602.202245,77.7530461 L602.202245,59.5195832 Z M440.812153,61.5610461 L433.706245,77.3690461 L428.778245,77.3690461 L449.258245,32.5690461 L453.930245,32.5690461 L474.410245,77.3690461 L469.418245,77.3690461 L462.284353,61.5610461 L440.812153,61.5610461 Z M329.484153,61.9450461 L322.378245,77.7530461 L317.450245,77.7530461 L337.930245,32.9530461 L342.602245,32.9530461 L363.082245,77.7530461 L358.090245,77.7530461 L350.956353,61.9450461 L329.484153,61.9450461 Z M173.082245,56.6970461 L163.930245,65.9770461 L163.930245,77.7530461 L159.194245,77.7530461 L159.194245,32.9530461 L163.930245,32.9530461 L163.930245,60.0250461 L190.234245,32.9530461 L195.674245,32.9530461 L176.282245,53.2410461 L197.018245,77.7530461 L191.386245,77.7530461 L173.082245,56.6970461 Z M232.682245,78.1370461 C228.24489,78.1370461 224.223597,77.145056 220.618245,75.1610461 C217.012894,73.1770361 214.196922,70.4570633 212.170245,67.0010461 C210.143569,63.5450288 209.130245,59.6624009 209.130245,55.3530461 C209.130245,51.0436912 210.143569,47.1610633 212.170245,43.7050461 C214.196922,40.2490288 217.012894,37.529056 220.618245,35.5450461 C224.223597,33.5610361 228.24489,32.5690461 232.682245,32.5690461 C237.119601,32.5690461 241.119561,33.5503696 244.682245,35.5130461 C248.24493,37.4757225 251.050235,40.1956953 253.098245,43.6730461 C255.146256,47.1503968 256.170245,51.0436912 256.170245,55.3530461 C256.170245,59.6624009 255.146256,63.5556953 253.098245,67.0330461 C251.050235,70.5103968 248.24493,73.2303696 244.682245,75.1930461 C241.119561,77.1557225 237.119601,78.1370461 232.682245,78.1370461 Z M232.682245,73.9130461 C236.223596,73.9130461 239.423564,73.1130541 242.282245,71.5130461 C245.140926,69.9130381 247.380904,67.6943936 249.002245,64.8570461 C250.623587,62.0196985 251.434245,58.8517302 251.434245,55.3530461 C251.434245,51.8543619 250.623587,48.6863936 249.002245,45.8490461 C247.380904,43.0116985 245.140926,40.7930541 242.282245,39.1930461 C239.423564,37.5930381 236.223596,36.7930461 232.682245,36.7930461 C229.140894,36.7930461 225.93026,37.5930381 223.050245,39.1930461 C220.170231,40.7930541 217.90892,43.0116985 216.266245,45.8490461 C214.62357,48.6863936 213.802245,51.8543619 213.802245,55.3530461 C213.802245,58.8517302 214.62357,62.0196985 216.266245,64.8570461 C217.90892,67.6943936 220.170231,69.9130381 223.050245,71.5130461 C225.93026,73.1130541 229.140894,73.9130461 232.682245,73.9130461 Z M276.794245,32.9530461 L281.530245,32.9530461 L281.530245,73.6570461 L306.618245,73.6570461 L306.618245,77.7530461 L276.794245,77.7530461 L276.794245,32.9530461 Z M329.484153,61.9450461 L329.485708,61.9415873 L350.954792,61.9415873 L350.956353,61.9450461 L350.986245,61.9450461 L340.234245,37.8810461 L329.482245,61.9450461 L329.484153,61.9450461 Z M440.812153,61.5610461 L440.813708,61.5575873 L462.282792,61.5575873 L462.284353,61.5610461 L462.314245,61.5610461 L451.562245,37.4970461 L440.810245,61.5610461 L440.812153,61.5610461 Z M501.114245,37.0490461 L485.370245,37.0490461 L485.370245,32.9530461 L521.594245,32.9530461 L521.594245,37.0490461 L505.850245,37.0490461 L505.850245,77.7530461 L501.114245,77.7530461 L501.114245,37.0490461 Z M558.090245,78.1370461 C553.65289,78.1370461 549.631597,77.145056 546.026245,75.1610461 C542.420894,73.1770361 539.604922,70.4570633 537.578245,67.0010461 C535.551569,63.5450288 534.538245,59.6624009 534.538245,55.3530461 C534.538245,51.0436912 535.551569,47.1610633 537.578245,43.7050461 C539.604922,40.2490288 542.420894,37.529056 546.026245,35.5450461 C549.631597,33.5610361 553.65289,32.5690461 558.090245,32.5690461 C562.527601,32.5690461 566.527561,33.5503696 570.090245,35.5130461 C573.65293,37.4757225 576.458235,40.1956953 578.506245,43.6730461 C580.554256,47.1503968 581.578245,51.0436912 581.578245,55.3530461 C581.578245,59.6624009 580.554256,63.5556953 578.506245,67.0330461 C576.458235,70.5103968 573.65293,73.2303696 570.090245,75.1930461 C566.527561,77.1557225 562.527601,78.1370461 558.090245,78.1370461 Z M558.090245,73.9130461 C561.631596,73.9130461 564.831564,73.1130541 567.690245,71.5130461 C570.548926,69.9130381 572.788904,67.6943936 574.410245,64.8570461 C576.031587,62.0196985 576.842245,58.8517302 576.842245,55.3530461 C576.842245,51.8543619 576.031587,48.6863936 574.410245,45.8490461 C572.788904,43.0116985 570.548926,40.7930541 567.690245,39.1930461 C564.831564,37.5930381 561.631596,36.7930461 558.090245,36.7930461 C554.548894,36.7930461 551.33826,37.5930381 548.458245,39.1930461 C545.578231,40.7930541 543.31692,43.0116985 541.674245,45.8490461 C540.03157,48.6863936 539.210245,51.8543619 539.210245,55.3530461 C539.210245,58.8517302 540.03157,62.0196985 541.674245,64.8570461 C543.31692,67.6943936 545.578231,69.9130381 548.458245,71.5130461 C551.33826,73.1130541 554.548894,73.9130461 558.090245,73.9130461 Z M673.834245,62.2650461 L673.834245,77.7530461 L669.162245,77.7530461 L669.162245,62.2650461 L651.242245,32.9530461 L656.298245,32.9530461 L671.658245,58.1050461 L687.018245,32.9530461 L691.754245,32.9530461 L673.834245,62.2650461 Z" id="Combined-Shape" fill="#FFFFFF"></path>
                        <g id="Group-2" transform="translate(0.884676, 0.500000)" fill-rule="nonzero">
                            <g id="Group" transform="translate(21.000000, 0.000000)">
                                <path d="M85.522108,42.65702 C85.522108,19.1849181 66.4942099,0.157019957 43.022108,0.157019957 C19.5500062,0.157019957 0.52210803,19.1849181 0.52210803,42.65702" id="Path" stroke="#FFFFFF" stroke-width="4" stroke-linecap="round"></path>
                                <circle id="Oval" fill="#FFCA00" cx="43" cy="35" r="10"></circle>
                            </g>
                            <g id="Group" transform="translate(43.639377, 87.500000) scale(1, -1) translate(-43.639377, -87.500000) translate(0.639377, 65.000000)">
                                <path d="M85.522108,42.65702 C85.522108,19.1849181 66.4942099,0.157019957 43.022108,0.157019957 C19.5500062,0.157019957 0.52210803,19.1849181 0.52210803,42.65702" id="Path" stroke="#FFFFFF" stroke-width="4" stroke-linecap="round"></path>
                                <circle id="Oval" fill="#FFCA00" cx="43" cy="35" r="10"></circle>
                            </g>
                        </g>
                    </g>
                </g>
            </g>
        </g>
    </g>
</svg>