<?xml version="1.0" encoding="UTF-8"?>
<svg width="693px" height="114px" viewBox="0 0 693 114" version="1.1" xmlns="http://www.w3.org/2000/svg" xmlns:xlink="http://www.w3.org/1999/xlink">
    <!-- Generator: Sketch 52.5 (67469) - http://www.bohemiancoding.com/sketch -->
    <title>Group 3</title>
    <desc>Created with Sketch.</desc>
    <g id="Main" stroke="none" stroke-width="1" fill="none" fill-rule="evenodd">
        <g id="Primary" transform="translate(-153.000000, -443.000000)">
            <g id="Group-3" transform="translate(154.000000, 445.000000)">
                <g id="Group" transform="translate(158.560887, 31.500000)">
                    <path d="M14.0822453,24.6970461 L4.93024533,33.9770461 L4.93024533,45.7530461 L0.194245325,45.7530461 L0.194245325,0.953046053 L4.93024533,0.953046053 L4.93024533,28.0250461 L31.2342453,0.953046053 L36.6742453,0.953046053 L17.2822453,21.2410461 L38.0182453,45.7530461 L32.3862453,45.7530461 L14.0822453,24.6970461 Z M73.6822453,46.1370461 C69.2448898,46.1370461 65.2235967,45.145056 61.6182453,43.1610461 C58.012894,41.1770361 55.1969221,38.4570633 53.1702453,35.0010461 C51.1435685,31.5450288 50.1302453,27.6624009 50.1302453,23.3530461 C50.1302453,19.0436912 51.1435685,15.1610633 53.1702453,11.7050461 C55.1969221,8.24902877 58.012894,5.52905597 61.6182453,3.54504605 C65.2235967,1.56103613 69.2448898,0.569046053 73.6822453,0.569046053 C78.1196008,0.569046053 82.1195608,1.55036957 85.6822453,3.51304605 C89.2449298,5.47572253 92.0502351,8.19569533 94.0982453,11.6730461 C96.1462556,15.1503968 97.1702453,19.0436912 97.1702453,23.3530461 C97.1702453,27.6624009 96.1462556,31.5556953 94.0982453,35.0330461 C92.0502351,38.5103968 89.2449298,41.2303696 85.6822453,43.1930461 C82.1195608,45.1557225 78.1196008,46.1370461 73.6822453,46.1370461 Z M73.6822453,41.9130461 C77.2235964,41.9130461 80.4235644,41.1130541 83.2822453,39.5130461 C86.1409263,37.9130381 88.3809039,35.6943936 90.0022453,32.8570461 C91.6235868,30.0196985 92.4342453,26.8517302 92.4342453,23.3530461 C92.4342453,19.8543619 91.6235868,16.6863936 90.0022453,13.8490461 C88.3809039,11.0116985 86.1409263,8.79305405 83.2822453,7.19304605 C80.4235644,5.59303805 77.2235964,4.79304605 73.6822453,4.79304605 C70.1408943,4.79304605 66.9302597,5.59303805 64.0502453,7.19304605 C61.1702309,8.79305405 58.9089202,11.0116985 57.2662453,13.8490461 C55.6235704,16.6863936 54.8022453,19.8543619 54.8022453,23.3530461 C54.8022453,26.8517302 55.6235704,30.0196985 57.2662453,32.8570461 C58.9089202,35.6943936 61.1702309,37.9130381 64.0502453,39.5130461 C66.9302597,41.1130541 70.1408943,41.9130461 73.6822453,41.9130461 Z M117.794245,0.953046053 L122.530245,0.953046053 L122.530245,41.6570461 L147.618245,41.6570461 L147.618245,45.7530461 L117.794245,45.7530461 L117.794245,0.953046053 Z M191.954792,29.9415873 L170.485708,29.9415873 L163.378245,45.7530461 L158.450245,45.7530461 L178.930245,0.953046053 L183.602245,0.953046053 L204.082245,45.7530461 L199.090245,45.7530461 L191.954792,29.9415873 Z M191.986245,29.9450461 L181.234245,5.88104605 L170.482245,29.9450461 L191.986245,29.9450461 Z M303.282792,29.5575873 L281.813708,29.5575873 L274.706245,45.3690461 L269.778245,45.3690461 L290.258245,0.569046053 L294.930245,0.569046053 L315.410245,45.3690461 L310.418245,45.3690461 L303.282792,29.5575873 Z M303.314245,29.5610461 L292.562245,5.49704605 L281.810245,29.5610461 L303.314245,29.5610461 Z M249.730245,22.6490461 C252.67426,23.2890493 254.946237,24.5583699 256.546245,26.4570461 C258.146253,28.3557222 258.946245,30.7983645 258.946245,33.7850461 C258.946245,37.6250653 257.527593,40.5797024 254.690245,42.6490461 C251.852898,44.7183897 247.66094,45.7530461 242.114245,45.7530461 L221.506245,45.7530461 L221.506245,0.953046053 L240.834245,0.953046053 C245.82627,0.953046053 249.698232,1.95570269 252.450245,3.96104605 C255.202259,5.96638941 256.578245,8.80369437 256.578245,12.4730461 C256.578245,14.9477251 255.970251,17.0490374 254.754245,18.7770461 C253.538239,20.5050547 251.863589,21.7957085 249.730245,22.6490461 Z M226.242245,4.85704605 L226.242245,21.1130461 L240.514245,21.1130461 C244.14093,21.1130461 246.935569,20.4197197 248.898245,19.0330461 C250.860922,17.6463725 251.842245,15.6303926 251.842245,12.9850461 C251.842245,10.3396995 250.860922,8.32371965 248.898245,6.93704605 C246.935569,5.55037245 244.14093,4.85704605 240.514245,4.85704605 L226.242245,4.85704605 Z M242.050245,41.8490461 C246.060932,41.8490461 249.090235,41.1663862 251.138245,39.8010461 C253.186256,38.4357059 254.210245,36.3023939 254.210245,33.4010461 C254.210245,27.8116848 250.156953,25.0170461 242.050245,25.0170461 L226.242245,25.0170461 L226.242245,41.8490461 L242.050245,41.8490461 Z M342.114245,5.04904605 L326.370245,5.04904605 L326.370245,0.953046053 L362.594245,0.953046053 L362.594245,5.04904605 L346.850245,5.04904605 L346.850245,45.7530461 L342.114245,45.7530461 L342.114245,5.04904605 Z M399.090245,46.1370461 C394.65289,46.1370461 390.631597,45.145056 387.026245,43.1610461 C383.420894,41.1770361 380.604922,38.4570633 378.578245,35.0010461 C376.551569,31.5450288 375.538245,27.6624009 375.538245,23.3530461 C375.538245,19.0436912 376.551569,15.1610633 378.578245,11.7050461 C380.604922,8.24902877 383.420894,5.52905597 387.026245,3.54504605 C390.631597,1.56103613 394.65289,0.569046053 399.090245,0.569046053 C403.527601,0.569046053 407.527561,1.55036957 411.090245,3.51304605 C414.65293,5.47572253 417.458235,8.19569533 419.506245,11.6730461 C421.554256,15.1503968 422.578245,19.0436912 422.578245,23.3530461 C422.578245,27.6624009 421.554256,31.5556953 419.506245,35.0330461 C417.458235,38.5103968 414.65293,41.2303696 411.090245,43.1930461 C407.527561,45.1557225 403.527601,46.1370461 399.090245,46.1370461 Z M399.090245,41.9130461 C402.631596,41.9130461 405.831564,41.1130541 408.690245,39.5130461 C411.548926,37.9130381 413.788904,35.6943936 415.410245,32.8570461 C417.031587,30.0196985 417.842245,26.8517302 417.842245,23.3530461 C417.842245,19.8543619 417.031587,16.6863936 415.410245,13.8490461 C413.788904,11.0116985 411.548926,8.79305405 408.690245,7.19304605 C405.831564,5.59303805 402.631596,4.79304605 399.090245,4.79304605 C395.548894,4.79304605 392.33826,5.59303805 389.458245,7.19304605 C386.578231,8.79305405 384.31692,11.0116985 382.674245,13.8490461 C381.03157,16.6863936 380.210245,19.8543619 380.210245,23.3530461 C380.210245,26.8517302 381.03157,30.0196985 382.674245,32.8570461 C384.31692,35.6943936 386.578231,37.9130381 389.458245,39.5130461 C392.33826,41.1130541 395.548894,41.9130461 399.090245,41.9130461 Z M473.794245,45.7530461 L463.554245,31.3530461 C462.40224,31.4810467 461.207585,31.5450461 459.970245,31.5450461 L447.938245,31.5450461 L447.938245,45.7530461 L443.202245,45.7530461 L443.202245,0.953046053 L459.970245,0.953046053 C465.687607,0.953046053 470.167562,2.31836573 473.410245,5.04904605 C476.652928,7.77972637 478.274245,11.5343555 478.274245,16.3130461 C478.274245,19.8117302 477.388921,22.7663673 475.618245,25.1770461 C473.84757,27.5877248 471.319595,29.3263741 468.034245,30.3930461 L478.978245,45.7530461 L473.794245,45.7530461 Z M459.842245,27.5130461 C464.279601,27.5130461 467.671567,26.5317225 470.018245,24.5690461 C472.364924,22.6063696 473.538245,19.8543971 473.538245,16.3130461 C473.538245,12.6863613 472.364924,9.90238909 470.018245,7.96104605 C467.671567,6.01970301 464.279601,5.04904605 459.842245,5.04904605 L447.938245,5.04904605 L447.938245,27.5130461 L459.842245,27.5130461 Z M514.834245,30.2650461 L514.834245,45.7530461 L510.162245,45.7530461 L510.162245,30.2650461 L492.242245,0.953046053 L497.298245,0.953046053 L512.658245,26.1050461 L528.018245,0.953046053 L532.754245,0.953046053 L514.834245,30.2650461 Z" id="KOLABATORY" fill="#FFFFFF"></path>
                    <rect id="Rectangle" fill="#000000" fill-rule="nonzero" x="219.870901" y="4.85730773" width="13" height="16.26"></rect>
                    <rect id="Rectangle" fill="#000000" fill-rule="nonzero" x="440.519604" y="5.05203478" width="13" height="22.4675484"></rect>
                    <rect id="Rectangle" fill="#000000" fill-rule="nonzero" x="219.09655" y="25.0157189" width="13" height="16.8372982"></rect>
                </g>
                <g id="Group-2" transform="translate(0.445563, 0.000000)" fill-rule="nonzero">
                    <g id="Group" transform="translate(21.000000, 0.000000)">
                        <path d="M85.522108,42.65702 C85.522108,19.1849181 66.4942099,0.157019957 43.022108,0.157019957 C19.5500062,0.157019957 0.52210803,19.1849181 0.52210803,42.65702" id="Path" stroke="#FFFFFF" stroke-width="4" stroke-linecap="round"></path>
                        <circle id="Oval" fill="#FFCA00" cx="43" cy="35" r="10"></circle>
                    </g>
                    <g id="Group" transform="translate(43.639377, 87.500000) scale(1, -1) translate(-43.639377, -87.500000) translate(0.639377, 65.000000)">
                        <path d="M85.522108,42.65702 C85.522108,19.1849181 66.4942099,0.157019957 43.022108,0.157019957 C19.5500062,0.157019957 0.52210803,19.1849181 0.52210803,42.65702" id="Path" stroke="#FFFFFF" stroke-width="4" stroke-linecap="round"></path>
                        <circle id="Oval" fill="#FFCA00" cx="43" cy="35" r="10"></circle>
                    </g>
                </g>
            </g>
        </g>
    </g>
</svg>