<svg xmlns="http://www.w3.org/2000/svg" width="1440" height="900"><path d="M704,417L649,358L582,404Z" fill="#6a5416" stroke="#6a5416" stroke-width="1.51"/><path d="M582,404L616,528L704,417Z" fill="#715a17" stroke="#715a17" stroke-width="1.51"/><path d="M582,404L465,492L616,528Z" fill="#6d5716" stroke="#6d5716" stroke-width="1.51"/><path d="M649,358L504,382L582,404Z" fill="#634f16" stroke="#634f16" stroke-width="1.51"/><path d="M616,528L689,605L704,417Z" fill="#7d6417" stroke="#7d6417" stroke-width="1.51"/><path d="M504,382L465,492L582,404Z" fill="#644f16" stroke="#644f16" stroke-width="1.51"/><path d="M616,528L604,660L689,605Z" fill="#866a17" stroke="#866a17" stroke-width="1.51"/><path d="M704,417L761,263L649,358Z" fill="#695316" stroke="#695316" stroke-width="1.51"/><path d="M649,358L608,223L504,382Z" fill="#5c4916" stroke="#5c4916" stroke-width="1.51"/><path d="M843,315L761,263L704,417Z" fill="#6c5616" stroke="#6c5616" stroke-width="1.51"/><path d="M881,557L841,417L704,417Z" fill="#826717" stroke="#826717" stroke-width="1.51"/><path d="M659,215L608,223L649,358Z" fill="#594715" stroke="#594715" stroke-width="1.51"/><path d="M761,263L659,215L649,358Z" fill="#5f4c16" stroke="#5f4c16" stroke-width="1.51"/><path d="M465,492L508,597L616,528Z" fill="#745c17" stroke="#745c17" stroke-width="1.51"/><path d="M841,417L843,315L704,417Z" fill="#765d17" stroke="#765d17" stroke-width="1.51"/><path d="M508,597L604,660L616,528Z" fill="#806517" stroke="#806517" stroke-width="1.51"/><path d="M608,223L460,252L504,382Z" fill="#514115" stroke="#514115" stroke-width="1.51"/><path d="M504,382L325,428L465,492Z" fill="#5e4b16" stroke="#5e4b16" stroke-width="1.51"/><path d="M689,605L881,557L704,417Z" fill="#866b17" stroke="#866b17" stroke-width="1.51"/><path d="M841,417L990,361L843,315Z" fill="#7b6217" stroke="#7b6217" stroke-width="1.51"/><path d="M753,733L881,557L689,605Z" fill="#977817" stroke="#977817" stroke-width="1.51"/><path d="M761,263L804,169L659,215Z" fill="#5b4815" stroke="#5b4815" stroke-width="1.51"/><path d="M659,215L551,26L608,223Z" fill="#483913" stroke="#483913" stroke-width="1.51"/><path d="M302,93L297,226L460,252Z" fill="#382d12" stroke="#382d12" stroke-width="1.51"/><path d="M843,315L804,169L761,263Z" fill="#645016" stroke="#645016" stroke-width="1.51"/><path d="M465,492L298,534L508,597Z" fill="#6b5616" stroke="#6b5616" stroke-width="1.51"/><path d="M460,252L325,428L504,382Z" fill="#534215" stroke="#534215" stroke-width="1.51"/><path d="M604,660L753,733L689,605Z" fill="#947517" stroke="#947517" stroke-width="1.51"/><path d="M1030,403L990,361L841,417Z" fill="#856a17" stroke="#856a17" stroke-width="1.51"/><path d="M843,315L1020,224L804,169Z" fill="#6a5417" stroke="#6a5417" stroke-width="1.51"/><path d="M904,760L947,586L881,557Z" fill="#a38217" stroke="#a38217" stroke-width="1.51"/><path d="M1030,403L841,417L1041,504Z" fill="#8d7017" stroke="#8d7017" stroke-width="1.51"/><path d="M604,660L600,865L753,733Z" fill="#9e7d16" stroke="#9e7d16" stroke-width="1.51"/><path d="M508,597L493,744L604,660Z" fill="#876b17" stroke="#876b17" stroke-width="1.51"/><path d="M312,745L493,744L508,597Z" fill="#826817" stroke="#826817" stroke-width="1.51"/><path d="M325,428L298,534L465,492Z" fill="#5f4b15" stroke="#5f4b15" stroke-width="1.51"/><path d="M460,252L285,277L325,428Z" fill="#493a14" stroke="#493a14" stroke-width="1.51"/><path d="M221,478L262,539L298,534Z" fill="#5b4815" stroke="#5b4815" stroke-width="1.51"/><path d="M297,226L285,277L460,252Z" fill="#3f3213" stroke="#3f3213" stroke-width="1.51"/><path d="M1041,504L841,417L881,557Z" fill="#907217" stroke="#907217" stroke-width="1.51"/><path d="M551,26L460,252L608,223Z" fill="#443713" stroke="#443713" stroke-width="1.51"/><path d="M753,733L904,760L881,557Z" fill="#a58316" stroke="#a58316" stroke-width="1.51"/><path d="M711,882L786,790L753,733Z" fill="#ae8a16" stroke="#ae8a16" stroke-width="1.51"/><path d="M221,478L298,534L325,428Z" fill="#584515" stroke="#584515" stroke-width="1.51"/><path d="M298,534L312,745L508,597Z" fill="#735b17" stroke="#735b17" stroke-width="1.51"/><path d="M717,15L551,26L659,215Z" fill="#413513" stroke="#413513" stroke-width="1.51"/><path d="M947,586L1041,504L881,557Z" fill="#9c7b17" stroke="#9c7b17" stroke-width="1.51"/><path d="M1118,523L1041,504L1080,664Z" fill="#a98616" stroke="#a98616" stroke-width="1.51"/><path d="M804,169L717,15L659,215Z" fill="#4f3f14" stroke="#4f3f14" stroke-width="1.51"/><path d="M800,22L717,15L804,169Z" fill="#4a3b14" stroke="#4a3b14" stroke-width="1.51"/><path d="M1020,224L843,315L990,361Z" fill="#785f16" stroke="#785f16" stroke-width="1.51"/><path d="M493,744L600,865L604,660Z" fill="#967717" stroke="#967717" stroke-width="1.51"/><path d="M312,745L483,804L493,744Z" fill="#8b6e17" stroke="#8b6e17" stroke-width="1.51"/><path d="M285,277L222,378L325,428Z" fill="#473914" stroke="#473914" stroke-width="1.51"/><path d="M212,231L222,378L285,277Z" fill="#3d3112" stroke="#3d3112" stroke-width="1.51"/><path d="M222,378L221,478L325,428Z" fill="#4e3e15" stroke="#4e3e15" stroke-width="1.51"/><path d="M1091,324L1020,224L990,361Z" fill="#7f6517" stroke="#7f6517" stroke-width="1.51"/><path d="M1091,324L990,361L1030,403Z" fill="#886c17" stroke="#886c17" stroke-width="1.51"/><path d="M551,26L450,39L460,252Z" fill="#382d12" stroke="#382d12" stroke-width="1.51"/><path d="M987,73L800,22L804,169Z" fill="#544315" stroke="#544315" stroke-width="1.51"/><path d="M786,790L904,760L753,733Z" fill="#ae8a16" stroke="#ae8a16" stroke-width="1.51"/><path d="M551,26L425,-1L450,39Z" fill="#2d240f" stroke="#2d240f" stroke-width="1.51"/><path d="M717,15L579,-12L551,26Z" fill="#362c11" stroke="#362c11" stroke-width="1.51"/><path d="M723,-86L579,-12L717,15Z" fill="#392e12" stroke="#392e12" stroke-width="1.51"/><path d="M904,760L962,726L947,586Z" fill="#ae8a16" stroke="#ae8a16" stroke-width="1.51"/><path d="M483,804L600,865L493,744Z" fill="#9a7a17" stroke="#9a7a17" stroke-width="1.51"/><path d="M786,790L955,826L904,760Z" fill="#b89215" stroke="#b89215" stroke-width="1.51"/><path d="M1195,425L1091,324L1030,403Z" fill="#917317" stroke="#917317" stroke-width="1.51"/><path d="M261,771L312,745L158,717Z" fill="#786017" stroke="#786017" stroke-width="1.51"/><path d="M262,539L312,745L298,534Z" fill="#695416" stroke="#695416" stroke-width="1.51"/><path d="M483,804L515,1002L600,865Z" fill="#a78516" stroke="#a78516" stroke-width="1.51"/><path d="M800,22L797,-21L717,15Z" fill="#413513" stroke="#413513" stroke-width="1.51"/><path d="M953,-110L797,-21L800,22Z" fill="#473913" stroke="#473913" stroke-width="1.51"/><path d="M600,865L711,882L753,733Z" fill="#ac8816" stroke="#ac8816" stroke-width="1.51"/><path d="M904,760L955,826L962,726Z" fill="#bb9415" stroke="#bb9415" stroke-width="1.51"/><path d="M222,378L139,505L221,478Z" fill="#4d3d14" stroke="#4d3d14" stroke-width="1.51"/><path d="M297,226L212,231L285,277Z" fill="#382d12" stroke="#382d12" stroke-width="1.51"/><path d="M257,115L212,231L297,226Z" fill="#312710" stroke="#312710" stroke-width="1.51"/><path d="M450,39L302,93L460,252Z" fill="#352a11" stroke="#352a11" stroke-width="1.51"/><path d="M425,-1L302,93L450,39Z" fill="#2a220f" stroke="#2a220f" stroke-width="1.51"/><path d="M579,-12L425,-1L551,26Z" fill="#2e2510" stroke="#2e2510" stroke-width="1.51"/><path d="M711,882L719,897L786,790Z" fill="#b58f15" stroke="#b58f15" stroke-width="1.51"/><path d="M620,941L719,897L711,882Z" fill="#b69115" stroke="#b69115" stroke-width="1.51"/><path d="M1041,504L1118,523L1030,403Z" fill="#9b7b17" stroke="#9b7b17" stroke-width="1.51"/><path d="M1080,664L1041,504L947,586Z" fill="#a78417" stroke="#a78417" stroke-width="1.51"/><path d="M1070,128L987,73L1020,224Z" fill="#685316" stroke="#685316" stroke-width="1.51"/><path d="M1020,224L987,73L804,169Z" fill="#634f16" stroke="#634f16" stroke-width="1.51"/><path d="M302,93L257,115L297,226Z" fill="#2e2510" stroke="#2e2510" stroke-width="1.51"/><path d="M260,-52L257,115L302,93Z" fill="#221b0c" stroke="#221b0c" stroke-width="1.51"/><path d="M1068,778L1080,664L962,726Z" fill="#bc9514" stroke="#bc9514" stroke-width="1.51"/><path d="M962,726L1080,664L947,586Z" fill="#af8b16" stroke="#af8b16" stroke-width="1.51"/><path d="M600,865L620,941L711,882Z" fill="#b28d15" stroke="#b28d15" stroke-width="1.51"/><path d="M312,745L386,858L483,804Z" fill="#8d7017" stroke="#8d7017" stroke-width="1.51"/><path d="M221,478L139,505L262,539Z" fill="#554415" stroke="#554415" stroke-width="1.51"/><path d="M312,745L261,771L386,858Z" fill="#856a17" stroke="#856a17" stroke-width="1.51"/><path d="M77,343L139,505L222,378Z" fill="#433613" stroke="#433613" stroke-width="1.51"/><path d="M836,-151L723,-86L797,-21Z" fill="#423513" stroke="#423513" stroke-width="1.51"/><path d="M797,-21L723,-86L717,15Z" fill="#3f3212" stroke="#3f3212" stroke-width="1.51"/><path d="M344,-128L347,-67L441,-191Z" fill="#241d0d" stroke="#241d0d" stroke-width="1.51"/><path d="M936,948L955,826L786,790Z" fill="#c39b13" stroke="#c39b13" stroke-width="1.51"/><path d="M1144,201L1070,128L1020,224Z" fill="#735b17" stroke="#735b17" stroke-width="1.51"/><path d="M1144,201L1020,224L1091,324Z" fill="#7c6317" stroke="#7c6317" stroke-width="1.51"/><path d="M158,717L312,745L262,539Z" fill="#6e5716" stroke="#6e5716" stroke-width="1.51"/><path d="M719,897L936,948L786,790Z" fill="#bf9814" stroke="#bf9814" stroke-width="1.51"/><path d="M515,1002L620,941L600,865Z" fill="#ac8916" stroke="#ac8916" stroke-width="1.51"/><path d="M139,505L133,579L262,539Z" fill="#574515" stroke="#574515" stroke-width="1.51"/><path d="M1195,425L1165,283L1091,324Z" fill="#907217" stroke="#907217" stroke-width="1.51"/><path d="M1165,283L1144,201L1091,324Z" fill="#836817" stroke="#836817" stroke-width="1.51"/><path d="M1118,523L1195,425L1030,403Z" fill="#9c7b17" stroke="#9c7b17" stroke-width="1.51"/><path d="M1245,535L1195,425L1118,523Z" fill="#a98616" stroke="#a98616" stroke-width="1.51"/><path d="M1080,664L1245,535L1118,523Z" fill="#b18c16" stroke="#b18c16" stroke-width="1.51"/><path d="M955,826L1068,778L962,726Z" fill="#c19914" stroke="#c19914" stroke-width="1.51"/><path d="M388,1068L515,1002L386,858Z" fill="#9f7e17" stroke="#9f7e17" stroke-width="1.51"/><path d="M133,579L158,717L262,539Z" fill="#614d16" stroke="#614d16" stroke-width="1.51"/><path d="M425,-1L347,-67L302,93Z" fill="#231d0c" stroke="#231d0c" stroke-width="1.51"/><path d="M441,-191L425,-1L579,-12Z" fill="#2b230f" stroke="#2b230f" stroke-width="1.51"/><path d="M212,231L77,343L222,378Z" fill="#3a2e12" stroke="#3a2e12" stroke-width="1.51"/><path d="M139,505L-6,577L133,579Z" fill="#514115" stroke="#514115" stroke-width="1.51"/><path d="M133,579L127,708L158,717Z" fill="#655016" stroke="#655016" stroke-width="1.51"/><path d="M61,145L77,343L212,231Z" fill="#2d240f" stroke="#2d240f" stroke-width="1.51"/><path d="M101,81L212,231L257,115Z" fill="#261f0e" stroke="#261f0e" stroke-width="1.51"/><path d="M140,895L296,956L261,771Z" fill="#896d17" stroke="#896d17" stroke-width="1.51"/><path d="M-6,577L127,708L133,579Z" fill="#5a4715" stroke="#5a4715" stroke-width="1.51"/><path d="M386,858L515,1002L483,804Z" fill="#a07f16" stroke="#a07f16" stroke-width="1.51"/><path d="M893,1007L936,948L719,897Z" fill="#c69d13" stroke="#c69d13" stroke-width="1.51"/><path d="M296,956L386,858L261,771Z" fill="#8f7117" stroke="#8f7117" stroke-width="1.51"/><path d="M1165,283L1219,247L1144,201Z" fill="#846817" stroke="#846817" stroke-width="1.51"/><path d="M1178,17L1125,-36L1070,128Z" fill="#634f16" stroke="#634f16" stroke-width="1.51"/><path d="M1195,425L1219,247L1165,283Z" fill="#907217" stroke="#907217" stroke-width="1.51"/><path d="M953,-110L836,-151L797,-21Z" fill="#493914" stroke="#493914" stroke-width="1.51"/><path d="M723,-86L610,-192L579,-12Z" fill="#372c11" stroke="#372c11" stroke-width="1.51"/><path d="M953,-110L800,22L987,73Z" fill="#4c3d14" stroke="#4c3d14" stroke-width="1.51"/><path d="M953,-110L987,73L1125,-36Z" fill="#554415" stroke="#554415" stroke-width="1.51"/><path d="M955,826L1148,945L1068,778Z" fill="#d2a611" stroke="#d2a611" stroke-width="1.51"/><path d="M893,1007L719,897L726,1068Z" fill="#bf9814" stroke="#bf9814" stroke-width="1.51"/><path d="M347,-67L260,-52L302,93Z" fill="#1e180a" stroke="#1e180a" stroke-width="1.51"/><path d="M770,-209L610,-192L723,-86Z" fill="#3c3012" stroke="#3c3012" stroke-width="1.51"/><path d="M347,-67L344,-128L260,-52Z" fill="#1f190b" stroke="#1f190b" stroke-width="1.51"/><path d="M1202,732L1245,535L1080,664Z" fill="#be9614" stroke="#be9614" stroke-width="1.51"/><path d="M1195,425L1368,265L1219,247Z" fill="#957617" stroke="#957617" stroke-width="1.51"/><path d="M1125,-36L987,73L1070,128Z" fill="#604c16" stroke="#604c16" stroke-width="1.51"/><path d="M441,-191L347,-67L425,-1Z" fill="#251e0d" stroke="#251e0d" stroke-width="1.51"/><path d="M260,-52L101,81L257,115Z" fill="#1d1809" stroke="#1d1809" stroke-width="1.51"/><path d="M126,-63L101,81L260,-52Z" fill="#141006" stroke="#141006" stroke-width="1.51"/><path d="M98,805L261,771L158,717Z" fill="#755d17" stroke="#755d17" stroke-width="1.51"/><path d="M1148,945L1202,732L1068,778Z" fill="#d5a910" stroke="#d5a910" stroke-width="1.51"/><path d="M726,1068L719,897L620,941Z" fill="#b79115" stroke="#b79115" stroke-width="1.51"/><path d="M1068,778L1202,732L1080,664Z" fill="#c49c13" stroke="#c49c13" stroke-width="1.51"/><path d="M1148,945L955,826L936,948Z" fill="#d5a910" stroke="#d5a910" stroke-width="1.51"/><path d="M942,-211L770,-209L836,-151Z" fill="#473913" stroke="#473913" stroke-width="1.51"/><path d="M836,-151L770,-209L723,-86Z" fill="#413413" stroke="#413413" stroke-width="1.51"/><path d="M101,81L61,145L212,231Z" fill="#231c0c" stroke="#231c0c" stroke-width="1.51"/><path d="M770,-209L441,-191L610,-192Z" fill="#342a11" stroke="#342a11" stroke-width="1.51"/><path d="M610,-192L441,-191L579,-12Z" fill="#302610" stroke="#302610" stroke-width="1.51"/><path d="M-64,449L-6,577L139,505Z" fill="#463813" stroke="#463813" stroke-width="1.51"/><path d="M61,145L2,301L77,343Z" fill="#2a220e" stroke="#2a220e" stroke-width="1.51"/><path d="M633,1081L726,1068L620,941Z" fill="#b48f16" stroke="#b48f16" stroke-width="1.51"/><path d="M633,1081L620,941L515,1002Z" fill="#ad8916" stroke="#ad8916" stroke-width="1.51"/><path d="M498,1136L633,1081L515,1002Z" fill="#a98716" stroke="#a98716" stroke-width="1.51"/><path d="M953,-110L942,-211L836,-151Z" fill="#4c3d14" stroke="#4c3d14" stroke-width="1.51"/><path d="M1178,17L1070,128L1144,201Z" fill="#6e5716" stroke="#6e5716" stroke-width="1.51"/><path d="M9,801L98,805L127,708Z" fill="#6e5716" stroke="#6e5716" stroke-width="1.51"/><path d="M127,708L98,805L158,717Z" fill="#6e5716" stroke="#6e5716" stroke-width="1.51"/><path d="M-64,449L139,505L77,343Z" fill="#3f3212" stroke="#3f3212" stroke-width="1.51"/><path d="M1340,158L1178,17L1144,201Z" fill="#775e17" stroke="#775e17" stroke-width="1.51"/><path d="M98,805L140,895L261,771Z" fill="#7c6317" stroke="#7c6317" stroke-width="1.51"/><path d="M187,1124L388,1068L296,956Z" fill="#927417" stroke="#927417" stroke-width="1.51"/><path d="M296,956L388,1068L386,858Z" fill="#987817" stroke="#987817" stroke-width="1.51"/><path d="M1091,-156L942,-211L953,-110Z" fill="#534215" stroke="#534215" stroke-width="1.51"/><path d="M1347,124L1194,-16L1178,17Z" fill="#6d5717" stroke="#6d5717" stroke-width="1.51"/><path d="M1178,17L1194,-16L1125,-36Z" fill="#614d16" stroke="#614d16" stroke-width="1.51"/><path d="M1125,-36L1091,-156L953,-110Z" fill="#584615" stroke="#584615" stroke-width="1.51"/><path d="M-177,387L-64,449L2,301Z" fill="#342a11" stroke="#342a11" stroke-width="1.51"/><path d="M-48,60L-87,174L61,145Z" fill="#171207" stroke="#171207" stroke-width="1.51"/><path d="M255,-201L126,-63L260,-52Z" fill="#181307" stroke="#181307" stroke-width="1.51"/><path d="M255,-201L260,-52L344,-128Z" fill="#1d180a" stroke="#1d180a" stroke-width="1.51"/><path d="M-87,174L2,301L61,145Z" fill="#211a0b" stroke="#211a0b" stroke-width="1.51"/><path d="M2,301L-64,449L77,343Z" fill="#332911" stroke="#332911" stroke-width="1.51"/><path d="M893,1007L972,1053L936,948Z" fill="#cea312" stroke="#cea312" stroke-width="1.51"/><path d="M850,1130L972,1053L893,1007Z" fill="#cba112" stroke="#cba112" stroke-width="1.51"/><path d="M850,1130L893,1007L726,1068Z" fill="#c39b13" stroke="#c39b13" stroke-width="1.51"/><path d="M1408,593L1368,455L1245,535Z" fill="#bb9514" stroke="#bb9514" stroke-width="1.51"/><path d="M1245,535L1368,455L1195,425Z" fill="#ad8916" stroke="#ad8916" stroke-width="1.51"/><path d="M1219,247L1340,158L1144,201Z" fill="#836717" stroke="#836717" stroke-width="1.51"/><path d="M972,1053L1055,1019L936,948Z" fill="#d3a710" stroke="#d3a710" stroke-width="1.51"/><path d="M1202,732L1338,680L1245,535Z" fill="#c79d12" stroke="#c79d12" stroke-width="1.51"/><path d="M1055,1019L1148,945L936,948Z" fill="#d8ac0f" stroke="#d8ac0f" stroke-width="1.51"/><path d="M1194,-16L1091,-156L1125,-36Z" fill="#5f4c16" stroke="#5f4c16" stroke-width="1.51"/><path d="M388,1068L498,1136L515,1002Z" fill="#a28016" stroke="#a28016" stroke-width="1.51"/><path d="M633,1081L850,1130L726,1068Z" fill="#bb9414" stroke="#bb9414" stroke-width="1.51"/><path d="M441,-191L255,-201L344,-128Z" fill="#211b0c" stroke="#211b0c" stroke-width="1.51"/><path d="M770,-209L255,-201L441,-191Z" fill="#2c230f" stroke="#2c230f" stroke-width="1.51"/><path d="M1148,945L1281,777L1202,732Z" fill="#dbae0e" stroke="#dbae0e" stroke-width="1.51"/><path d="M-92,691L127,708L-6,577Z" fill="#594615" stroke="#594615" stroke-width="1.51"/><path d="M-92,691L9,801L127,708Z" fill="#634f16" stroke="#634f16" stroke-width="1.51"/><path d="M98,805L9,801L140,895Z" fill="#765e17" stroke="#765e17" stroke-width="1.51"/><path d="M498,1136L850,1130L633,1081Z" fill="#b48f16" stroke="#b48f16" stroke-width="1.51"/><path d="M1261,1100L1205,1013L1055,1019Z" fill="#e5b50c" stroke="#e5b50c" stroke-width="1.51"/><path d="M1368,455L1368,265L1195,425Z" fill="#a48216" stroke="#a48216" stroke-width="1.51"/><path d="M1281,777L1338,680L1202,732Z" fill="#d4a810" stroke="#d4a810" stroke-width="1.51"/><path d="M-57,927L165,992L140,895Z" fill="#806517" stroke="#806517" stroke-width="1.51"/><path d="M140,895L165,992L296,956Z" fill="#8a6e17" stroke="#8a6e17" stroke-width="1.51"/><path d="M388,1068L187,1124L498,1136Z" fill="#987917" stroke="#987917" stroke-width="1.51"/><path d="M1368,265L1340,158L1219,247Z" fill="#8c7017" stroke="#8c7017" stroke-width="1.51"/><path d="M1194,-16L1161,-236L1091,-156Z" fill="#604c16" stroke="#604c16" stroke-width="1.51"/><path d="M1492,144L1347,124L1340,158Z" fill="#886c17" stroke="#886c17" stroke-width="1.51"/><path d="M1340,158L1347,124L1178,17Z" fill="#796017" stroke="#796017" stroke-width="1.51"/><path d="M-48,60L61,145L101,81Z" fill="#171207" stroke="#171207" stroke-width="1.51"/><path d="M1281,777L1331,775L1338,680Z" fill="#daad0e" stroke="#daad0e" stroke-width="1.51"/><path d="M1338,680L1408,593L1245,535Z" fill="#c69d13" stroke="#c69d13" stroke-width="1.51"/><path d="M1388,901L1331,775L1281,777Z" fill="#e7b70b" stroke="#e7b70b" stroke-width="1.51"/><path d="M126,-63L-48,60L101,81Z" fill="#0e0a03" stroke="#0e0a03" stroke-width="1.51"/><path d="M6,-112L-48,60L126,-63Z" fill="#040301" stroke="#040301" stroke-width="1.51"/><path d="M-162,545L-92,691L-6,577Z" fill="#514114" stroke="#514114" stroke-width="1.51"/><path d="M147,1132L187,1124L165,992Z" fill="#876b17" stroke="#876b17" stroke-width="1.51"/><path d="M-162,545L-6,577L-64,449Z" fill="#463813" stroke="#463813" stroke-width="1.51"/><path d="M1535,631L1408,593L1509,757Z" fill="#d9ad0f" stroke="#d9ad0f" stroke-width="1.51"/><path d="M1368,455L1521,359L1368,265Z" fill="#aa8716" stroke="#aa8716" stroke-width="1.51"/><path d="M-87,174L-143,269L2,301Z" fill="#251e0d" stroke="#251e0d" stroke-width="1.51"/><path d="M-48,60L-106,165L-87,174Z" fill="#181307" stroke="#181307" stroke-width="1.51"/><path d="M-106,165L-143,269L-87,174Z" fill="#201a0b" stroke="#201a0b" stroke-width="1.51"/><path d="M-177,387L-162,545L-64,449Z" fill="#3e3212" stroke="#3e3212" stroke-width="1.51"/><path d="M1148,945L1388,901L1281,777Z" fill="#eaba0a" stroke="#eaba0a" stroke-width="1.51"/><path d="M1055,1019L1205,1013L1148,945Z" fill="#e1b20d" stroke="#e1b20d" stroke-width="1.51"/><path d="M1261,1100L1055,1019L972,1053Z" fill="#deaf0e" stroke="#deaf0e" stroke-width="1.51"/><path d="M-143,269L-177,387L2,301Z" fill="#2d2410" stroke="#2d2410" stroke-width="1.51"/><path d="M-48,60L-152,117L-106,165Z" fill="#161106" stroke="#161106" stroke-width="1.51"/><path d="M38,-161L6,-112L126,-63Z" fill="#080602" stroke="#080602" stroke-width="1.51"/><path d="M1091,-156L1161,-236L942,-211Z" fill="#594715" stroke="#594715" stroke-width="1.51"/><path d="M942,-211L1161,-236L770,-209Z" fill="#504014" stroke="#504014" stroke-width="1.51"/><path d="M770,-209L-48,-240L255,-201Z" fill="#201a0b" stroke="#201a0b" stroke-width="1.51"/><path d="M1388,-210L1161,-236L1194,-16Z" fill="#685316" stroke="#685316" stroke-width="1.51"/><path d="M255,-201L38,-161L126,-63Z" fill="#120e05" stroke="#120e05" stroke-width="1.51"/><path d="M-57,927L140,895L9,801Z" fill="#785f17" stroke="#785f17" stroke-width="1.51"/><path d="M165,992L187,1124L296,956Z" fill="#8b6f17" stroke="#8b6f17" stroke-width="1.51"/><path d="M-143,269L-152,117L-177,387Z" fill="#261e0d" stroke="#261e0d" stroke-width="1.51"/><path d="M-106,165L-152,117L-143,269Z" fill="#1e180a" stroke="#1e180a" stroke-width="1.51"/><path d="M-123,-34L-152,117L-48,60Z" fill="#0b0802" stroke="#0b0802" stroke-width="1.51"/><path d="M-123,-34L-48,60L6,-112Z" fill="#000000" stroke="#000000" stroke-width="1.51"/><path d="M-139,825L-57,927L9,801Z" fill="#725a17" stroke="#725a17" stroke-width="1.51"/><path d="M-162,545L-183,662L-92,691Z" fill="#544315" stroke="#544315" stroke-width="1.51"/><path d="M-177,387L-183,662L-162,545Z" fill="#473913" stroke="#473913" stroke-width="1.51"/><path d="M-139,825L9,801L-92,691Z" fill="#675216" stroke="#675216" stroke-width="1.51"/><path d="M-4,1138L147,1132L165,992Z" fill="#826717" stroke="#826717" stroke-width="1.51"/><path d="M187,1124L147,1132L498,1136Z" fill="#917317" stroke="#917317" stroke-width="1.51"/><path d="M1347,124L1385,-30L1194,-16Z" fill="#715a17" stroke="#715a17" stroke-width="1.51"/><path d="M1513,48L1385,-30L1347,124Z" fill="#7d6317" stroke="#7d6317" stroke-width="1.51"/><path d="M1492,144L1340,158L1368,265Z" fill="#8f7217" stroke="#8f7217" stroke-width="1.51"/><path d="M-183,662L-139,825L-92,691Z" fill="#614d16" stroke="#614d16" stroke-width="1.51"/><path d="M1534,476L1521,359L1368,455Z" fill="#b79115" stroke="#b79115" stroke-width="1.51"/><path d="M1534,476L1368,455L1408,593Z" fill="#c29a13" stroke="#c29a13" stroke-width="1.51"/><path d="M1509,757L1408,593L1338,680Z" fill="#daad0e" stroke="#daad0e" stroke-width="1.51"/><path d="M1205,1013L1388,901L1148,945Z" fill="#ecbb09" stroke="#ecbb09" stroke-width="1.51"/><path d="M-48,-240L-123,-34L6,-112Z" fill="#000000" stroke="#000000" stroke-width="1.51"/><path d="M1548,252L1492,144L1368,265Z" fill="#987817" stroke="#987817" stroke-width="1.51"/><path d="M1535,631L1534,476L1408,593Z" fill="#cba112" stroke="#cba112" stroke-width="1.51"/><path d="M-139,825L-106,927L-57,927Z" fill="#785f17" stroke="#785f17" stroke-width="1.51"/><path d="M-57,927L-4,1138L165,992Z" fill="#7b6217" stroke="#7b6217" stroke-width="1.51"/><path d="M1509,757L1338,680L1331,775Z" fill="#e1b20d" stroke="#e1b20d" stroke-width="1.51"/><path d="M1205,1013L1389,1088L1388,901Z" fill="#f4c105" stroke="#f4c105" stroke-width="1.51"/><path d="M850,1130L1261,1100L972,1053Z" fill="#d7aa10" stroke="#d7aa10" stroke-width="1.51"/><path d="M1606,403L1521,359L1534,476Z" fill="#b48f16" stroke="#b48f16" stroke-width="1.51"/><path d="M1624,285L1548,252L1521,359Z" fill="#a38216" stroke="#a38216" stroke-width="1.51"/><path d="M1521,359L1548,252L1368,265Z" fill="#a28016" stroke="#a28016" stroke-width="1.51"/><path d="M1471,851L1331,775L1388,901Z" fill="#f1bf06" stroke="#f1bf06" stroke-width="1.51"/><path d="M1471,851L1509,757L1331,775Z" fill="#eebd08" stroke="#eebd08" stroke-width="1.51"/><path d="M1454,981L1471,851L1388,901Z" fill="#ffca00" stroke="#ffca00" stroke-width="1.51"/><path d="M1614,62L1513,48L1492,144Z" fill="#846917" stroke="#846917" stroke-width="1.51"/><path d="M1492,144L1513,48L1347,124Z" fill="#876b17" stroke="#876b17" stroke-width="1.51"/><path d="M1385,-30L1388,-210L1194,-16Z" fill="#6e5817" stroke="#6e5817" stroke-width="1.51"/><path d="M38,-161L-48,-240L6,-112Z" fill="#000000" stroke="#000000" stroke-width="1.51"/><path d="M255,-201L-48,-240L38,-161Z" fill="#0b0903" stroke="#0b0903" stroke-width="1.51"/><path d="M1161,-236L-48,-240L770,-209Z" fill="#362b11" stroke="#362b11" stroke-width="1.51"/><path d="M1645,630L1534,476L1535,631Z" fill="#cda312" stroke="#cda312" stroke-width="1.51"/><path d="M1645,630L1606,403L1534,476Z" fill="#c19913" stroke="#c19913" stroke-width="1.51"/><path d="M1548,252L1614,62L1492,144Z" fill="#8e7117" stroke="#8e7117" stroke-width="1.51"/><path d="M-110,1027L-4,1138L-57,927Z" fill="#796017" stroke="#796017" stroke-width="1.51"/><path d="M147,1132L-4,1138L498,1136Z" fill="#8b6e17" stroke="#8b6e17" stroke-width="1.51"/><path d="M1513,48L1464,-89L1385,-30Z" fill="#796017" stroke="#796017" stroke-width="1.51"/><path d="M-106,927L-110,1027L-57,927Z" fill="#796017" stroke="#796017" stroke-width="1.51"/><path d="M-139,825L-110,1027L-106,927Z" fill="#796017" stroke="#796017" stroke-width="1.51"/><path d="M-183,662L-110,1027L-139,825Z" fill="#705917" stroke="#705917" stroke-width="1.51"/><path d="M1452,-171L1388,-210L1385,-30Z" fill="#765e17" stroke="#765e17" stroke-width="1.51"/><path d="M1509,757L1590,688L1535,631Z" fill="#dfb00e" stroke="#dfb00e" stroke-width="1.51"/><path d="M1624,783L1590,688L1509,757Z" fill="#e6b60b" stroke="#e6b60b" stroke-width="1.51"/><path d="M1471,851L1624,783L1509,757Z" fill="#efbd08" stroke="#efbd08" stroke-width="1.51"/><path d="M1389,1088L1454,981L1388,901Z" fill="#fcc702" stroke="#fcc702" stroke-width="1.51"/><path d="M1606,403L1624,285L1521,359Z" fill="#aa8716" stroke="#aa8716" stroke-width="1.51"/><path d="M1604,-126L1452,-171L1464,-89Z" fill="#796017" stroke="#796017" stroke-width="1.51"/><path d="M1645,630L1624,285L1606,403Z" fill="#b89215" stroke="#b89215" stroke-width="1.51"/><path d="M1261,1100L1389,1088L1205,1013Z" fill="#f0be07" stroke="#f0be07" stroke-width="1.51"/><path d="M1464,-89L1452,-171L1385,-30Z" fill="#785f17" stroke="#785f17" stroke-width="1.51"/><path d="M1604,-126L1464,-89L1513,48Z" fill="#796017" stroke="#796017" stroke-width="1.51"/><path d="M1590,688L1645,630L1535,631Z" fill="#d8ab0f" stroke="#d8ab0f" stroke-width="1.51"/><path d="M1624,783L1645,630L1590,688Z" fill="#e0b10e" stroke="#e0b10e" stroke-width="1.51"/><path d="M1655,-51L1614,62L1624,285Z" fill="#866b17" stroke="#866b17" stroke-width="1.51"/><path d="M1624,285L1614,62L1548,252Z" fill="#957617" stroke="#957617" stroke-width="1.51"/><path d="M1628,965L1471,851L1454,981Z" fill="#ffca00" stroke="#ffca00" stroke-width="1.51"/><path d="M1628,965L1624,783L1471,851Z" fill="#f9c603" stroke="#f9c603" stroke-width="1.51"/><path d="M-48,-240L-217,-188L-123,-34Z" fill="#000000" stroke="#000000" stroke-width="1.51"/><path d="M-123,-34L-217,-188L-152,117Z" fill="#000000" stroke="#000000" stroke-width="1.51"/><path d="M-152,117L-217,-188L-177,387Z" fill="#151006" stroke="#151006" stroke-width="1.51"/><path d="M-177,387L-217,-188L-183,662Z" fill="#29210e" stroke="#29210e" stroke-width="1.51"/><path d="M850,1130L1522,1083L1261,1100Z" fill="#e8b80b" stroke="#e8b80b" stroke-width="1.51"/><path d="M1261,1100L1522,1083L1389,1088Z" fill="#fac603" stroke="#fac603" stroke-width="1.51"/><path d="M1389,1088L1522,1083L1454,981Z" fill="#ffca00" stroke="#ffca00" stroke-width="1.51"/><path d="M1655,-51L1604,-126L1513,48Z" fill="#796017" stroke="#796017" stroke-width="1.51"/><path d="M1452,-171L1604,-126L1388,-210Z" fill="#796017" stroke="#796017" stroke-width="1.51"/><path d="M1655,-51L1513,48L1614,62Z" fill="#7b6217" stroke="#7b6217" stroke-width="1.51"/><path d="M1522,1083L1555,1056L1454,981Z" fill="#ffca00" stroke="#ffca00" stroke-width="1.51"/><path d="M1645,630L1655,-51L1624,285Z" fill="#a28016" stroke="#a28016" stroke-width="1.51"/><path d="M1555,1056L1628,965L1454,981Z" fill="#ffca00" stroke="#ffca00" stroke-width="1.51"/><path d="M1624,783L1628,965L1645,630Z" fill="#eebc08" stroke="#eebc08" stroke-width="1.51"/></svg>